<mxfile host="app.diagrams.net" agent="Mozilla/5.0 (Windows NT 10.0; Win64; x64) AppleWebKit/537.36 (KHTML, like Gecko) Chrome/127.0.0.0 Safari/537.36" version="24.7.7">
  <diagram name="Page-1" id="SNJ3th58SQo4jWQ9po4B">
    <mxGraphModel dx="779" dy="1097" grid="1" gridSize="10" guides="1" tooltips="1" connect="1" arrows="1" fold="1" page="1" pageScale="1" pageWidth="850" pageHeight="1100" math="0" shadow="0">
      <root>
        <mxCell id="0" />
        <mxCell id="1" parent="0" />
        <mxCell id="OukG9Dj8Tmg-w_0w9xgk-1" value="&lt;div style=&quot;font-size: 16px;&quot;&gt;&lt;font face=&quot;Courier New&quot; style=&quot;font-size: 16px;&quot;&gt;template&amp;lt;typename T&amp;gt;&lt;/font&gt;&lt;/div&gt;&lt;div style=&quot;font-size: 16px;&quot;&gt;&lt;font face=&quot;Courier New&quot; style=&quot;font-size: 16px;&quot;&gt;void forwarding_fun(T&amp;amp;&amp;amp; param){&lt;/font&gt;&lt;/div&gt;&lt;div style=&quot;font-size: 16px;&quot;&gt;&lt;font face=&quot;Courier New&quot;&gt;&amp;nbsp; fun(std::forward(param));&lt;/font&gt;&lt;/div&gt;&lt;div style=&quot;font-size: 16px;&quot;&gt;&lt;font face=&quot;Courier New&quot; style=&quot;font-size: 16px;&quot;&gt;}&lt;/font&gt;&lt;/div&gt;" style="rounded=1;whiteSpace=wrap;html=1;align=left;" vertex="1" parent="1">
          <mxGeometry x="270" y="320" width="340" height="100" as="geometry" />
        </mxCell>
        <mxCell id="OukG9Dj8Tmg-w_0w9xgk-2" value="&lt;div style=&quot;font-size: 16px;&quot;&gt;&lt;font face=&quot;Courier New&quot;&gt;fun(T &amp;amp;t){&lt;/font&gt;&lt;/div&gt;&lt;div style=&quot;font-size: 16px;&quot;&gt;&lt;font face=&quot;Courier New&quot;&gt;...&lt;/font&gt;&lt;/div&gt;&lt;div style=&quot;font-size: 16px;&quot;&gt;&lt;font face=&quot;Courier New&quot;&gt;}&lt;/font&gt;&lt;/div&gt;" style="rounded=1;whiteSpace=wrap;html=1;align=left;" vertex="1" parent="1">
          <mxGeometry x="225" y="450" width="130" height="70" as="geometry" />
        </mxCell>
        <mxCell id="OukG9Dj8Tmg-w_0w9xgk-3" value="&lt;div style=&quot;font-size: 16px;&quot;&gt;&lt;font face=&quot;Courier New&quot;&gt;fun(T &amp;amp;&amp;amp;t){&lt;/font&gt;&lt;/div&gt;&lt;div style=&quot;font-size: 16px;&quot;&gt;&lt;font face=&quot;Courier New&quot;&gt;...&lt;/font&gt;&lt;/div&gt;&lt;div style=&quot;font-size: 16px;&quot;&gt;&lt;font face=&quot;Courier New&quot;&gt;}&lt;/font&gt;&lt;/div&gt;" style="rounded=1;whiteSpace=wrap;html=1;align=left;" vertex="1" parent="1">
          <mxGeometry x="465" y="450" width="160" height="70" as="geometry" />
        </mxCell>
        <mxCell id="OukG9Dj8Tmg-w_0w9xgk-4" value="lvalue&lt;div style=&quot;font-size: 16px;&quot;&gt;&amp;nbsp; T t{};&lt;/div&gt;&lt;div style=&quot;font-size: 16px;&quot;&gt;forwarding_fun(t);&lt;/div&gt;" style="ellipse;whiteSpace=wrap;html=1;fontSize=16;fontFamily=Courier New;" vertex="1" parent="1">
          <mxGeometry x="148" y="210" width="280" height="80" as="geometry" />
        </mxCell>
        <mxCell id="OukG9Dj8Tmg-w_0w9xgk-5" value="&lt;div style=&quot;font-size: 16px;&quot;&gt;rvalue&lt;/div&gt;&lt;div style=&quot;font-size: 16px;&quot;&gt;forwarding_fun(T {});&lt;/div&gt;" style="ellipse;whiteSpace=wrap;html=1;fontSize=16;fontFamily=Courier New;" vertex="1" parent="1">
          <mxGeometry x="453" y="210" width="250" height="80" as="geometry" />
        </mxCell>
        <mxCell id="OukG9Dj8Tmg-w_0w9xgk-6" value="" style="curved=1;endArrow=classic;html=1;rounded=0;exitX=0.5;exitY=1;exitDx=0;exitDy=0;entryX=0.735;entryY=0.4;entryDx=0;entryDy=0;entryPerimeter=0;strokeWidth=2;dashed=1;dashPattern=8 8;" edge="1" parent="1" source="OukG9Dj8Tmg-w_0w9xgk-4" target="OukG9Dj8Tmg-w_0w9xgk-1">
          <mxGeometry width="50" height="50" relative="1" as="geometry">
            <mxPoint x="20" y="250" as="sourcePoint" />
            <mxPoint x="70" y="200" as="targetPoint" />
            <Array as="points">
              <mxPoint x="380" y="280" />
            </Array>
          </mxGeometry>
        </mxCell>
        <mxCell id="OukG9Dj8Tmg-w_0w9xgk-11" value="&lt;font style=&quot;font-size: 16px;&quot;&gt;path 1&lt;/font&gt;" style="edgeLabel;html=1;align=center;verticalAlign=middle;resizable=0;points=[];" vertex="1" connectable="0" parent="OukG9Dj8Tmg-w_0w9xgk-6">
          <mxGeometry x="0.061" y="-7" relative="1" as="geometry">
            <mxPoint as="offset" />
          </mxGeometry>
        </mxCell>
        <mxCell id="OukG9Dj8Tmg-w_0w9xgk-7" value="" style="curved=1;endArrow=classic;html=1;rounded=0;exitX=0.548;exitY=1.013;exitDx=0;exitDy=0;entryX=0.794;entryY=0.4;entryDx=0;entryDy=0;entryPerimeter=0;strokeWidth=2;dashed=1;dashPattern=1 2;exitPerimeter=0;" edge="1" parent="1" source="OukG9Dj8Tmg-w_0w9xgk-5" target="OukG9Dj8Tmg-w_0w9xgk-1">
          <mxGeometry width="50" height="50" relative="1" as="geometry">
            <mxPoint x="550" y="260" as="sourcePoint" />
            <mxPoint x="510" y="350" as="targetPoint" />
            <Array as="points">
              <mxPoint x="590" y="290" />
            </Array>
          </mxGeometry>
        </mxCell>
        <mxCell id="OukG9Dj8Tmg-w_0w9xgk-12" value="&lt;font style=&quot;font-size: 16px;&quot;&gt;path 2&lt;/font&gt;" style="edgeLabel;html=1;align=center;verticalAlign=middle;resizable=0;points=[];" vertex="1" connectable="0" parent="OukG9Dj8Tmg-w_0w9xgk-7">
          <mxGeometry x="-0.2954" y="2" relative="1" as="geometry">
            <mxPoint y="-1" as="offset" />
          </mxGeometry>
        </mxCell>
        <mxCell id="OukG9Dj8Tmg-w_0w9xgk-8" value="&lt;font style=&quot;font-size: 16px;&quot;&gt;path 1&lt;/font&gt;" style="curved=1;endArrow=classic;html=1;rounded=0;exitX=0.5;exitY=1;exitDx=0;exitDy=0;entryX=0.554;entryY=0.057;entryDx=0;entryDy=0;entryPerimeter=0;dashed=1;strokeWidth=2;dashPattern=8 8;" edge="1" parent="1" target="OukG9Dj8Tmg-w_0w9xgk-2">
          <mxGeometry width="50" height="50" relative="1" as="geometry">
            <mxPoint x="390" y="390" as="sourcePoint" />
            <mxPoint x="640" y="490" as="targetPoint" />
            <Array as="points">
              <mxPoint x="380" y="420" />
            </Array>
          </mxGeometry>
        </mxCell>
        <mxCell id="OukG9Dj8Tmg-w_0w9xgk-9" value="" style="curved=1;endArrow=classic;html=1;rounded=0;exitX=0.5;exitY=1;exitDx=0;exitDy=0;entryX=0.5;entryY=0;entryDx=0;entryDy=0;dashed=1;dashPattern=1 2;strokeWidth=2;" edge="1" parent="1" target="OukG9Dj8Tmg-w_0w9xgk-3">
          <mxGeometry width="50" height="50" relative="1" as="geometry">
            <mxPoint x="400" y="390" as="sourcePoint" />
            <mxPoint x="390" y="490" as="targetPoint" />
            <Array as="points">
              <mxPoint x="440" y="420" />
            </Array>
          </mxGeometry>
        </mxCell>
        <mxCell id="OukG9Dj8Tmg-w_0w9xgk-13" value="&lt;font style=&quot;font-size: 16px;&quot;&gt;path 2&lt;/font&gt;" style="edgeLabel;html=1;align=center;verticalAlign=middle;resizable=0;points=[];" vertex="1" connectable="0" parent="OukG9Dj8Tmg-w_0w9xgk-9">
          <mxGeometry x="-0.2493" y="6" relative="1" as="geometry">
            <mxPoint as="offset" />
          </mxGeometry>
        </mxCell>
      </root>
    </mxGraphModel>
  </diagram>
</mxfile>
